<svg width="32" height="32" viewBox="0 0 32 32" fill="none" xmlns="http://www.w3.org/2000/svg">
<mask id="mask0_164_549" style="mask-type:alpha" maskUnits="userSpaceOnUse" x="0" y="5" width="31" height="23">
<path fill-rule="evenodd" clip-rule="evenodd" d="M18.4966 16.4691V5.33331C21.6783 5.33331 24.4622 8.31612 24.4622 10.1058V15.8726C24.4622 18.0599 23.2801 19.8496 21.4794 19.8496C19.4909 19.8496 18.4966 17.6622 18.4966 16.4691ZM24.86 16.668V5.53216C28.0416 5.53216 30.8256 8.51496 30.8256 10.3046V16.0714C30.8256 18.2588 29.6435 20.0485 27.8428 20.0485C25.8542 20.0485 24.86 17.8611 24.86 16.668ZM9.34931 14.6794C9.19023 7.6798 15.6464 5.46589 18.4966 5.33331C17.1132 5.33333 14.6398 5.38746 12.2741 5.43924C10.1059 5.4867 8.02818 5.53218 6.96308 5.53218C4.1792 5.53218 0.812208 7.92208 0.599828 14.0829C0.401033 19.8496 4.37681 22.2359 6.96308 22.2359C8.33468 22.2359 12.0319 22.3673 15.1761 22.479C16.2679 22.5178 17.293 22.5543 18.1309 22.582C18.6203 22.6194 19.0794 22.6336 19.4909 22.6336H20.0803C20.772 22.6336 21.2568 23.3464 21.8439 24.2097C22.7759 25.58 23.9656 27.3292 26.6496 27.2072C30.1494 27.0481 30.7592 24.0918 30.6267 22.6336H20.0803C19.7857 22.6336 19.0779 22.6133 18.1309 22.582C14.5988 22.3117 9.48903 20.8272 9.34931 14.6794Z" fill="url(#paint0_linear_164_549)"/>
</mask>
<g mask="url(#mask0_164_549)">
<rect y="2" width="32" height="27" fill="white"/>
</g>
<defs>
<linearGradient id="paint0_linear_164_549" x1="6.11793" y1="2.35296" x2="46.0396" y2="15.5376" gradientUnits="userSpaceOnUse">
<stop stop-color="#15EDED"/>
<stop offset="1" stop-color="#04B2E9"/>
</linearGradient>
</defs>
</svg>
